<?xml version="1.0" encoding="UTF-8"?>
<svg width="24px" height="24px" viewBox="0 0 24 24" version="1.1" xmlns="http://www.w3.org/2000/svg" xmlns:xlink="http://www.w3.org/1999/xlink">
    <!-- Generator: Sketch 48.2 (47327) - http://www.bohemiancoding.com/sketch -->
    <title>Stroke 829 + Stroke 830</title>
    <desc>Created with Sketch.</desc>
    <defs></defs>
    <g id="Footer" stroke="none" stroke-width="1" fill="none" fill-rule="evenodd" transform="translate(-776.000000, -728.000000)" stroke-linejoin="round">
        <g id="Group-11" transform="translate(736.000000, 728.000000)" stroke="#808080">
            <g id="Stroke-829-+-Stroke-830" transform="translate(40.000000, 0.000000)">
                <path d="M23.5,12 C23.5,18.351 18.352,23.5 12,23.5 C5.648,23.5 0.5,18.351 0.5,12 C0.5,5.648 5.648,0.5 12,0.5 C18.352,0.5 23.5,5.648 23.5,12 L23.5,12 Z" id="Stroke-829" stroke-linecap="round"></path>
                <path d="M9.5859,12.1104 C8.8949,12.4864 7.4589,9.4684 7.1639,8.7204 C7.1639,8.7204 7.0979,8.5564 6.9789,8.4704 C6.8339,8.3654 6.6319,8.3304 6.6319,8.3304 L4.4879,8.3434 C4.4879,8.3434 4.1669,8.3524 4.0489,8.4934 C3.9439,8.6174 4.0409,8.8754 4.0409,8.8754 C4.0409,8.8754 5.7189,12.6684 7.6179,14.6484 C9.3609,16.4624 11.3389,16.2104 11.3389,16.2104 C11.4399,16.2104 12.5759,16.2364 12.6449,16.1624 C13.0039,15.7774 12.5519,14.7274 13.3089,14.4884 C13.8589,14.3144 14.5669,15.6684 15.3149,16.1814 C15.8809,16.5704 16.3129,16.4934 16.3129,16.4934 L18.3149,16.4704 C18.3149,16.4704 19.3629,16.4064 18.8659,15.5824 C18.8259,15.5154 18.5759,14.9744 17.3769,13.8614 C16.1209,12.6954 16.2889,12.8844 17.8029,10.8674 C18.7239,9.6384 19.0919,8.8904 18.9769,8.5684 C18.8669,8.2634 18.1899,8.3434 18.1899,8.3434 L15.9339,8.3584 C15.9339,8.3584 15.7659,8.3354 15.6429,8.4094 C15.5219,8.4824 15.4439,8.6524 15.4439,8.6524 C15.1329,9.4774 13.6499,12.4934 13.0409,12.0994 C12.2269,11.5734 13.4489,8.3434 12.2659,8.0584 C12.0209,8.0004 11.8399,7.9604 11.2129,7.9534 C10.4079,7.9454 9.7269,7.9554 9.3419,8.1444 C9.0849,8.2714 8.8869,8.5504 9.0079,8.5684 C9.1559,8.5874 9.4939,8.6594 9.6729,8.9024 C9.9859,9.3274 10.0469,11.8594 9.5859,12.1104 L9.5859,12.1104 Z" id="Stroke-830"></path>
            </g>
        </g>
    </g>
</svg>